<?xml version="1.0" encoding="iso-8859-1"?>
<!-- Uploaded to: SVG Repo, www.svgrepo.com, Generator: SVG Repo Mixer Tools -->
<svg fill="#000000" height="800px" width="800px" version="1.1" id="Layer_1" xmlns="http://www.w3.org/2000/svg" xmlns:xlink="http://www.w3.org/1999/xlink" 
	 viewBox="0 0 512 512" xml:space="preserve">
<g>
	<g>
		<g>
			<path d="M131.047,442.334c1.553,1.195,3.379,1.766,5.197,1.766c2.56,0,5.086-1.143,6.776-3.328
				c6.92-9.003,10.581-19.78,10.581-31.172c0-10.752-3.294-21.043-9.532-29.764c-2.739-3.831-8.073-4.727-11.904-1.98
				s-4.719,8.073-1.98,11.904c4.156,5.811,6.349,12.672,6.349,19.84c0,7.595-2.441,14.771-7.049,20.77
				C126.609,434.108,127.309,439.467,131.047,442.334z"/>
			<path d="M486.4,0c-10.035,0-20.659,8.875-22.272,10.3c-1.109,0.862-112.546,86.852-214.161,188.467
				c-50.765,50.765-83.012,89.694-101.129,113.408c-2.859,3.746-2.142,9.097,1.604,11.964c3.746,2.85,9.105,2.133,11.964-1.604
				c6.4-8.38,14.677-18.765,24.883-30.874c5.214,2.295,13.594,6.622,20.011,13.039c6.716,6.716,10.889,14.993,13.056,20.173
				c-30.387,25.771-49.075,38.63-53.197,41.378c-0.051,0.026-0.119,0.026-0.179,0.051c-0.188,0.094-0.29,0.273-0.469,0.384
				c-0.077,0.051-0.265,0.171-0.273,0.179c-0.102,0.068-0.154,0.179-0.247,0.239c-0.759,0.555-1.425,1.152-1.946,1.886
				c-0.29,0.401-0.469,0.836-0.683,1.271c-0.222,0.469-0.478,0.913-0.614,1.417c-0.239,0.819-0.29,1.664-0.282,2.526
				c0.009,0.154-0.026,0.307-0.009,0.461c0.094,1.374,0.41,2.739,1.212,3.985c0.043,0.068,0.102,0.119,0.145,0.179
				c4.454,8.943,6.852,19.533,6.852,30.771c0,31.787-22.485,59.827-53.47,66.662c-3.447,0.759-56.883,9.822-98.261,16.802
				c6.972-41.37,16.043-94.822,16.819-98.321c6.861-30.95,34.884-53.41,66.645-53.41c16.401,0,32.265,5.905,44.646,16.623
				c3.558,3.089,8.943,2.688,12.032-0.87s2.697-8.951-0.862-12.032c-15.488-13.406-35.311-20.787-55.817-20.787
				c-39.697,0-74.726,28.083-83.302,66.773C17.886,396.476,1.937,491.264,0.12,502.05c-0.461,2.722,0.427,5.495,2.381,7.45
				c1.613,1.613,3.789,2.5,6.033,2.5c0.469,0,0.939-0.034,1.417-0.119c10.786-1.818,105.506-17.758,110.925-18.944
				c38.741-8.559,66.859-43.605,66.859-83.336c0-11.571-2.15-22.63-6.101-32.563c16.077-11.255,62.473-45.875,131.601-115.004
				C414.848,160.418,500.839,48.981,501.316,48.341C503.091,46.328,512,35.797,512,25.6C512,11.486,500.514,0,486.4,0z
				 M488.175,37.461c-0.853,1.101-86.17,111.667-187.008,212.506c-25.728,25.728-48.341,46.635-67.362,63.309
				c-3.063-6.238-7.731-13.935-14.438-20.642c-6.537-6.536-14.319-11.273-20.548-14.413c16.649-19.072,37.47-41.643,63.215-67.388
				C362.837,110.029,473.429,24.678,474.957,23.484c3.388-2.97,9.122-6.417,11.443-6.417c4.702,0,8.533,3.831,8.533,8.533
				C494.933,27.981,491.563,33.587,488.175,37.461z"/>
		</g>
	</g>
</g>
</svg>